<svg version="1.1" id="Layer_1" xmlns="http://www.w3.org/2000/svg" xmlns:xlink="http://www.w3.org/1999/xlink" x="0px" y="0px"
	 width="100%" viewBox="0 0 512 512" enable-background="new 0 0 512 512" xml:space="preserve">
<path fill="#FFFFFF" opacity="1.000000" stroke="none" 
	d="
M262.000000,1.000001 
	C345.617767,1.000000 429.235504,1.000000 512.926636,1.000000 
	C512.926636,171.666641 512.926636,342.333313 512.926636,513.000000 
	C508.948578,513.000000 504.950958,513.000000 500.577667,512.660461 
	C506.050140,509.828247 508.672668,504.929596 510.429565,498.873901 
	C510.865723,480.076447 510.940125,461.512970 510.954498,442.949493 
	C510.955048,442.263763 510.369476,441.577545 510.023682,440.520691 
	C508.350128,434.193176 504.685730,430.096313 498.707764,427.594116 
	C489.055450,427.178162 479.530273,427.176392 469.788757,427.103333 
	C469.572449,427.032043 469.121735,426.965912 469.068726,426.501678 
	C469.009460,412.925171 469.016754,399.812897 468.991455,386.700653 
	C468.978180,379.811310 465.524323,374.627258 458.750641,373.064606 
	C454.027222,371.974854 448.988647,372.251282 444.039062,371.456818 
	C443.976654,348.508759 443.942444,326.021362 443.961090,303.533997 
	C443.986694,272.720154 444.052338,241.906296 444.561584,211.051590 
	C457.854736,211.004669 470.687164,211.017517 483.519562,210.987183 
	C496.025757,210.957611 508.963165,200.237518 509.794006,187.848541 
	C510.630341,175.377777 510.086914,162.807571 509.979797,150.282364 
	C509.865845,136.958435 494.483429,123.757935 481.031097,124.885300 
	C472.760529,125.578415 464.381409,124.975967 456.007080,124.603912 
	C455.188568,123.475548 454.525726,122.523476 453.622955,121.947418 
	C437.437744,111.619781 421.248993,101.297287 405.010040,91.054451 
	C374.158234,71.594437 343.272614,52.188076 312.404144,32.754490 
	C295.599426,22.174911 278.801178,11.585164 262.000000,1.000001 
z"/>
<path fill="#FFFFFF" opacity="1.000000" stroke="none" 
	d="
M13.000000,513.000000 
	C9.002258,513.000000 5.004517,513.000000 1.005081,513.000000 
	C1.003387,342.431946 1.003387,171.863892 1.003387,1.000000 
	C84.353996,1.000000 167.708344,1.000000 251.349701,1.301741 
	C250.117020,2.236233 248.470703,2.668398 247.098480,3.534713 
	C239.009232,8.641579 231.020935,13.908406 222.930267,19.012951 
	C192.100281,38.464115 161.233841,57.857494 130.401627,77.305161 
	C111.147995,89.449562 91.891647,101.590630 72.724792,113.870995 
	C67.676201,117.105667 62.955528,120.852142 57.662971,124.387032 
	C48.119816,124.607002 38.980782,124.518570 29.880150,125.067162 
	C16.383051,125.880760 5.275089,135.824280 4.223449,148.888184 
	C3.196381,161.646866 3.538899,174.574432 4.133914,187.388229 
	C4.706907,199.727829 17.573799,210.968231 29.954588,211.001053 
	C42.933735,211.035461 55.912857,211.078476 68.931274,211.576660 
	C68.944534,265.317841 68.918510,318.600067 68.437881,371.931458 
	C65.328796,371.987030 62.674129,371.975342 60.019878,372.003265 
	C50.964211,372.098602 45.017727,378.095886 44.998760,387.121094 
	C44.970867,400.392487 44.934582,413.663910 44.440147,426.963745 
	C39.658443,426.994751 35.338459,426.998169 31.018478,426.999756 
	C27.695402,427.001007 24.360708,427.180542 21.051340,426.967529 
	C9.226303,426.206543 3.204476,434.226532 3.054762,445.232544 
	C2.840085,461.014252 3.116866,476.802277 2.953449,492.585175 
	C2.864284,501.196899 4.999855,508.481262 13.000000,513.000000 
z"/>
<path fill="#0051BF" opacity="1.000000" stroke="none" 
	d="
M13.468657,513.000000 
	C4.999855,508.481262 2.864284,501.196899 2.953449,492.585175 
	C3.116866,476.802277 2.840085,461.014252 3.054762,445.232544 
	C3.204476,434.226532 9.226303,426.206543 21.051340,426.967529 
	C24.360708,427.180542 27.695402,427.001007 31.018478,426.999756 
	C35.338459,426.998169 39.658443,426.994751 44.912407,427.018555 
	C77.296745,427.060547 108.747108,427.097656 140.197449,427.086212 
	C179.134964,427.072083 218.072495,427.017639 257.019989,427.210449 
	C257.029968,427.440308 257.003448,427.899689 257.002197,428.374634 
	C257.000641,456.899750 257.000336,484.949860 257.000000,513.000000 
	C175.979111,513.000000 94.958206,513.000000 13.468657,513.000000 
z"/>
<path fill="#00347B" opacity="1.000000" stroke="none" 
	d="
M257.468658,513.000000 
	C257.000336,484.949860 257.000641,456.899750 257.469055,428.333496 
	C322.527130,427.808990 387.117218,427.821686 451.707184,427.756439 
	C457.512299,427.750580 463.316895,427.241364 469.121735,426.965912 
	C469.121735,426.965912 469.572449,427.032043 470.113403,427.359497 
	C480.047882,427.794067 489.441376,427.901184 498.834900,428.008301 
	C504.685730,430.096313 508.350128,434.193176 510.005615,440.995667 
	C510.033203,460.930298 510.045471,480.019104 510.057739,499.107910 
	C508.672668,504.929596 506.050140,509.828247 500.101013,512.660461 
	C419.312439,513.000000 338.624878,513.000000 257.468658,513.000000 
z"/>
<path fill="#8CBCFF" opacity="1.000000" stroke="none" 
	d="
M58.084274,124.363586 
	C62.955528,120.852142 67.676201,117.105667 72.724792,113.870995 
	C91.891647,101.590630 111.147995,89.449562 130.401627,77.305161 
	C161.233841,57.857494 192.100281,38.464115 222.930267,19.012951 
	C231.020935,13.908406 239.009232,8.641579 247.098480,3.534713 
	C248.470703,2.668398 250.117020,2.236233 251.818359,1.301741 
	C253.388901,1.000000 254.777786,1.000000 256.583496,1.468657 
	C257.017029,42.981098 257.033783,84.024879 257.079895,125.126450 
	C257.109222,125.184235 257.141571,125.309738 256.664520,125.240364 
	C192.079102,125.149734 127.970711,125.134933 63.862373,125.076080 
	C61.936123,125.074318 60.010296,124.611465 58.084274,124.363586 
z"/>
<path fill="#6AA9FF" opacity="1.000000" stroke="none" 
	d="
M257.050537,125.068665 
	C257.033783,84.024879 257.017029,42.981098 257.000122,1.468657 
	C258.388885,1.000000 259.777802,1.000000 261.583344,1.000001 
	C278.801178,11.585164 295.599426,22.174911 312.404144,32.754490 
	C343.272614,52.188076 374.158234,71.594437 405.010040,91.054451 
	C421.248993,101.297287 437.437744,111.619781 453.622955,121.947418 
	C454.525726,122.523476 455.188568,123.475548 455.537567,124.660065 
	C389.091553,125.067902 323.071045,125.068283 257.050537,125.068665 
z"/>
<path fill="#046EFF" opacity="1.000000" stroke="none" 
	d="
M257.079895,125.126450 
	C323.071045,125.068283 389.091553,125.067902 455.581543,125.011383 
	C464.381409,124.975967 472.760529,125.578415 481.031097,124.885300 
	C494.483429,123.757935 509.865845,136.958435 509.979797,150.282364 
	C510.086914,162.807571 510.630341,175.377777 509.794006,187.848541 
	C508.963165,200.237518 496.025757,210.957611 483.519562,210.987183 
	C470.687164,211.017517 457.854736,211.004669 444.087952,211.006195 
	C429.091187,211.032516 415.028748,211.063400 400.501831,211.054962 
	C386.326447,211.053223 372.615509,211.090790 358.444977,211.071960 
	C338.357635,211.041702 318.729919,211.067825 298.628601,211.048019 
	C284.434967,210.910904 270.714935,210.819733 256.999207,210.276947 
	C257.049561,181.653458 257.095551,153.481598 257.141541,125.309738 
	C257.141571,125.309738 257.109222,125.184235 257.079895,125.126450 
z"/>
<path fill="#046EFF" opacity="1.000000" stroke="none" 
	d="
M469.068726,426.501678 
	C463.316895,427.241364 457.512299,427.750580 451.707184,427.756439 
	C387.117218,427.821686 322.527130,427.808990 257.470276,427.858521 
	C257.003448,427.899689 257.029968,427.440308 257.016235,426.743896 
	C257.004761,408.171478 257.007050,390.295502 257.466400,372.299438 
	C271.643982,372.094025 285.364471,372.008698 299.546875,371.961945 
	C319.642670,371.960358 339.276520,371.920197 359.382019,371.938293 
	C373.565002,371.987305 387.276337,371.978027 401.455139,372.016357 
	C415.978699,372.015137 430.034760,371.966309 444.090851,371.917480 
	C448.988647,372.251282 454.027222,371.974854 458.750641,373.064606 
	C465.524323,374.627258 468.978180,379.811310 468.991455,386.700653 
	C469.016754,399.812897 469.009460,412.925171 469.068726,426.501678 
z"/>
<path fill="#6AA9FF" opacity="1.000000" stroke="none" 
	d="
M444.039062,371.456818 
	C430.034760,371.966309 415.978699,372.015137 401.466522,371.550629 
	C400.995728,317.722961 400.981018,264.408600 400.966309,211.094269 
	C415.028748,211.063400 429.091187,211.032516 443.627258,211.047058 
	C444.052338,241.906296 443.986694,272.720154 443.961090,303.533997 
	C443.942444,326.021362 443.976654,348.508759 444.039062,371.456818 
z"/>
<path fill="#00429B" opacity="1.000000" stroke="none" 
	d="
M510.429565,498.873901 
	C510.045471,480.019104 510.033203,460.930298 510.039001,441.366516 
	C510.369476,441.577545 510.955048,442.263763 510.954498,442.949493 
	C510.940125,461.512970 510.865723,480.076447 510.429565,498.873901 
z"/>
<path fill="#00429B" opacity="1.000000" stroke="none" 
	d="
M498.707764,427.594116 
	C489.441376,427.901184 480.047882,427.794067 470.329712,427.430786 
	C479.530273,427.176392 489.055450,427.178162 498.707764,427.594116 
z"/>
<path fill="#2682FF" opacity="1.000000" stroke="none" 
	d="
M256.664490,125.240364 
	C257.095551,153.481598 257.049561,181.653458 256.999054,210.384979 
	C256.994537,210.944656 257.013855,211.157516 256.547821,211.086945 
	C242.352432,211.049408 228.623093,211.082458 214.434021,211.067200 
	C193.689224,211.041336 173.404144,211.063797 152.643158,211.053467 
	C138.437759,211.026764 124.708244,211.032852 110.511963,211.014297 
	C96.327454,211.032349 82.609726,211.075043 68.891991,211.117737 
	C55.912857,211.078476 42.933735,211.035461 29.954588,211.001053 
	C17.573799,210.968231 4.706907,199.727829 4.133914,187.388229 
	C3.538899,174.574432 3.196381,161.646866 4.223449,148.888184 
	C5.275089,135.824280 16.383051,125.880760 29.880150,125.067162 
	C38.980782,124.518570 48.119816,124.607002 57.662971,124.387024 
	C60.010296,124.611465 61.936123,125.074318 63.862373,125.076080 
	C127.970711,125.134933 192.079102,125.149734 256.664490,125.240364 
z"/>
<path fill="#2682FF" opacity="1.000000" stroke="none" 
	d="
M257.009338,372.419495 
	C257.007050,390.295502 257.004761,408.171478 257.006226,426.514038 
	C218.072495,427.017639 179.134964,427.072083 140.197449,427.086212 
	C108.747108,427.097656 77.296745,427.060547 45.374134,426.990112 
	C44.934582,413.663910 44.970867,400.392487 44.998760,387.121094 
	C45.017727,378.095886 50.964211,372.098602 60.019878,372.003265 
	C62.674129,371.975342 65.328796,371.987030 68.911407,371.988098 
	C83.565910,372.007263 97.292274,372.018921 111.485275,372.042633 
	C125.670387,372.010834 139.388870,371.966949 153.568268,371.955200 
	C174.320969,371.957184 194.612762,371.927124 215.376495,371.959503 
	C229.568848,371.993195 243.289230,371.964447 257.000977,372.056641 
	C256.992310,372.177582 257.009338,372.419495 257.009338,372.419495 
z"/>
<path fill="#8CBCFF" opacity="1.000000" stroke="none" 
	d="
M111.018646,372.030579 
	C97.292274,372.018921 83.565910,372.007263 69.366013,371.938965 
	C68.918510,318.600067 68.944534,265.317841 68.931274,211.576660 
	C82.609726,211.075043 96.327454,211.032349 110.526367,211.478943 
	C111.011246,265.322327 111.014946,318.676453 111.018646,372.030579 
z"/>
<path fill="#FFFFFF" opacity="1.000000" stroke="none" 
	d="
M358.910400,371.880005 
	C339.276520,371.920197 319.642670,371.960358 299.504730,371.500183 
	C298.991974,360.838898 298.968536,350.677917 298.977142,340.516968 
	C299.013641,297.375946 299.059631,254.234955 299.102173,211.093964 
	C318.729919,211.067825 338.357635,211.041702 358.479431,211.530807 
	C358.952454,265.324036 358.931427,318.602020 358.910400,371.880005 
z"/>
<path fill="#8CBCFF" opacity="1.000000" stroke="none" 
	d="
M359.382019,371.938293 
	C358.931427,318.602020 358.952454,265.324036 358.939026,211.587189 
	C372.615509,211.090790 386.326447,211.053223 400.501831,211.054962 
	C400.981018,264.408600 400.995728,317.722961 400.999084,371.503021 
	C387.276337,371.978027 373.565002,371.987305 359.382019,371.938293 
z"/>
<path fill="#6AA9FF" opacity="1.000000" stroke="none" 
	d="
M298.628601,211.048004 
	C299.059631,254.234955 299.013641,297.375946 298.977142,340.516968 
	C298.968536,350.677917 298.991974,360.838898 299.042847,371.461609 
	C285.364471,372.008698 271.643982,372.094025 257.466400,372.299438 
	C257.009338,372.419495 256.992310,372.177582 256.997314,371.594727 
	C257.006165,317.727051 257.010010,264.442291 257.013855,211.157516 
	C257.013855,211.157516 256.994537,210.944656 256.994690,210.836609 
	C270.714935,210.819733 284.434967,210.910904 298.628601,211.048004 
z"/>
<path fill="#FFFFFF" opacity="1.000000" stroke="none" 
	d="
M214.904541,371.897034 
	C194.612762,371.927124 174.320969,371.957184 153.527161,371.493530 
	C153.056458,317.695282 153.087769,264.390778 153.119064,211.086243 
	C173.404144,211.063797 193.689224,211.041336 214.472687,211.526306 
	C214.948883,265.321503 214.926712,318.609253 214.904541,371.897034 
z"/>
<path fill="#8CBCFF" opacity="1.000000" stroke="none" 
	d="
M215.376495,371.959503 
	C214.926712,318.609253 214.948883,265.321503 214.932404,211.574615 
	C228.623093,211.082458 242.352432,211.049408 256.547821,211.086945 
	C257.010010,264.442291 257.006165,317.727051 257.005981,371.473755 
	C243.289230,371.964447 229.568848,371.993195 215.376495,371.959503 
z"/>
<path fill="#6AA9FF" opacity="1.000000" stroke="none" 
	d="
M152.643158,211.053467 
	C153.087769,264.390778 153.056458,317.695282 153.066254,371.461456 
	C139.388870,371.966949 125.670387,372.010834 111.485275,372.042633 
	C111.014946,318.676453 111.011246,265.322327 110.993149,211.503571 
	C124.708244,211.032852 138.437759,211.026764 152.643158,211.053467 
z"/>
</svg>