<svg version="1.1" id="Layer_1" xmlns="http://www.w3.org/2000/svg" xmlns:xlink="http://www.w3.org/1999/xlink" x="0px" y="0px"
	 width="100%" viewBox="0 0 512 512" enable-background="new 0 0 512 512" xml:space="preserve">
<path fill="#000000" opacity="1.000000" stroke="none" 
	d="
M234.000000,1.000000 
	C251.687561,1.000000 269.375122,1.000000 287.828857,1.211145 
	C294.767670,3.380796 301.269592,3.525887 307.550049,4.832594 
	C339.222778,11.422416 368.843384,23.160709 396.050385,40.747696 
	C419.097748,55.645824 439.130768,73.867920 456.527405,95.135109 
	C480.144836,124.007248 496.375702,156.529694 505.854370,192.497223 
	C509.527313,206.434402 511.703125,220.649857 513.000000,235.000000 
	C513.000000,249.687561 513.000000,264.375122 512.953735,279.928833 
	C512.054932,287.183411 511.326691,293.591309 510.328156,299.956818 
	C506.177368,326.416656 497.639801,351.477203 485.291107,375.167023 
	C475.680603,393.603973 464.084381,410.731018 450.153320,426.307037 
	C437.819336,440.097351 424.508179,452.747864 409.674042,463.756836 
	C394.701202,474.868774 378.686066,484.220856 361.597229,491.777710 
	C343.316345,499.861633 324.463318,505.907349 304.791626,509.558838 
	C299.515594,510.538177 293.864990,510.072296 289.000000,513.000000 
	C267.979095,513.000000 246.958206,513.000000 225.240112,512.723999 
	C216.312851,510.781494 208.086472,509.096741 199.852066,507.452087 
	C178.374725,503.162445 158.154556,495.274597 138.791519,485.295746 
	C124.627838,477.996429 111.214195,469.396118 98.704170,459.408997 
	C82.278549,446.295898 67.519600,431.592743 54.498798,415.090576 
	C40.850594,397.793243 29.752224,378.995880 21.010975,358.812592 
	C13.478544,341.420471 7.884504,323.431030 4.466661,304.737915 
	C3.505424,299.480682 4.051261,293.815430 1.000000,289.000000 
	C1.000000,270.979095 1.000000,252.958206 1.000500,234.066132 
	C1.882735,226.808899 2.682005,220.410202 3.660587,214.039032 
	C7.731427,187.535278 16.317518,162.436737 28.644884,138.752243 
	C43.820240,109.595879 64.016563,84.331741 88.926613,62.674362 
	C113.991356,40.882481 142.186264,24.815134 173.354797,13.800290 
	C192.979340,6.865044 213.323517,3.082439 234.000000,1.000000 
M380.740417,71.861618 
	C370.057831,64.402206 358.520020,58.439785 346.717133,53.053913 
	C323.562042,42.487789 299.108856,36.344112 273.807770,34.660564 
	C260.603699,33.781971 247.240051,33.861958 233.920471,35.283562 
	C211.113983,37.717705 189.126358,43.221012 168.271561,52.553223 
	C134.837982,67.514259 106.296837,88.962883 83.269104,117.762932 
	C54.723797,153.463608 38.469456,194.075638 34.649876,239.375717 
	C33.020893,258.695374 33.663776,278.269897 37.582623,297.477051 
	C48.549568,351.228546 74.806503,395.751831 117.563408,430.446625 
	C153.057175,459.247772 193.739624,475.361145 238.997711,479.324890 
	C256.308319,480.840973 273.893768,480.371582 291.229675,477.479675 
	C334.639099,470.238281 372.918396,452.035309 405.703094,422.807953 
	C431.403839,399.895905 450.665405,372.170441 463.719025,340.258698 
	C479.254181,302.280365 483.395538,262.836548 477.314240,222.456360 
	C473.175079,194.972290 463.768860,169.183929 449.601685,145.108124 
	C432.276550,115.665581 409.549591,91.433556 380.740417,71.861618 
z"/>
<path fill="#000000" opacity="1.000000" stroke="none" 
	d="
M353.372559,210.815292 
	C352.697998,219.760620 346.846039,225.286942 338.385834,225.366028 
	C333.886963,225.408096 329.386383,225.441818 324.888550,225.364716 
	C321.797607,225.311752 320.221741,226.469391 319.259735,229.667160 
	C309.274933,262.858582 287.160309,282.955475 253.063431,289.000214 
	C244.492477,290.519684 235.443008,289.312897 226.614288,289.425018 
	C224.502975,289.451813 222.268707,288.929565 220.222977,290.400513 
	C221.085846,293.491486 223.593613,295.301392 225.660919,297.372101 
	C255.210190,326.970032 284.718658,356.609741 314.455139,386.018768 
	C319.467316,390.975769 321.997589,396.189087 321.463531,403.256866 
	C321.061127,408.582733 318.709106,412.443817 314.444611,415.208862 
	C308.110809,419.315582 298.168945,418.271332 292.761749,412.872192 
	C250.312744,370.486511 207.998016,327.965637 165.382843,285.747955 
	C159.305527,279.727295 159.006958,265.230835 165.260742,260.455841 
	C168.443756,258.025482 171.655090,256.573181 175.726669,256.591980 
	C195.389572,256.682800 215.056458,256.845612 234.715286,256.546417 
	C246.795044,256.362579 258.546234,254.304703 268.552673,246.675079 
	C275.418457,241.440125 280.726868,235.024765 283.731995,226.843277 
	C281.944885,224.556335 279.597290,225.435455 277.589935,225.431717 
	C243.762451,225.368805 209.934814,225.397675 176.107239,225.370468 
	C168.332886,225.364212 162.119400,220.591812 160.756393,213.742432 
	C158.854080,204.182938 162.459488,196.556763 170.185303,193.399460 
	C172.307846,192.532059 174.422729,192.646255 176.563400,192.644913 
	C210.057724,192.623993 243.552078,192.635590 277.046417,192.623886 
	C283.931915,192.621490 284.827820,191.441803 281.313263,185.662262 
	C272.937775,171.888977 260.810822,163.911316 244.506012,162.397278 
	C221.727310,160.282059 198.911575,161.951920 176.119812,161.413437 
	C166.146744,161.177795 160.620667,155.377563 160.629120,144.785553 
	C160.637299,134.539932 166.197937,128.644730 176.013779,128.640945 
	C230.004654,128.620132 283.995544,128.618576 337.986420,128.637772 
	C347.922333,128.641296 353.386749,134.623932 353.374878,145.312607 
	C353.363739,155.348053 347.601654,161.310654 337.835541,161.373947 
	C328.506134,161.434433 319.176605,161.472931 309.847412,161.553345 
	C309.382446,161.557358 308.920105,161.868622 308.421326,162.049591 
	C307.656342,163.730835 308.726746,164.921722 309.504883,166.138687 
	C313.648438,172.618851 317.052032,179.436752 318.713898,186.992371 
	C319.665894,191.320694 322.100616,193.107040 326.542053,192.676666 
	C329.513428,192.388763 332.569305,192.917175 335.529236,192.576004 
	C346.891449,191.266403 354.837372,199.603790 353.372559,210.815292 
z"/>
</svg>