<svg version="1.1" id="Layer_1" xmlns="http://www.w3.org/2000/svg" xmlns:xlink="http://www.w3.org/1999/xlink" x="0px" y="0px"
	 width="100%" viewBox="0 0 512 512" enable-background="new 0 0 512 512" xml:space="preserve">
<path fill="#FFFFFF" opacity="1.000000" stroke="none" 
	d="
M413.000000,1.000000 
	C446.314178,1.000000 479.628387,1.000000 512.971313,1.000000 
	C512.971313,171.549515 512.971313,342.099030 512.971313,513.000000 
	C463.312988,513.000000 413.625153,513.000000 363.556366,512.657349 
	C370.338989,508.860077 373.832947,499.727783 366.782104,492.282013 
	C365.527618,490.957275 364.193695,489.696838 363.041046,488.288391 
	C354.582306,477.952423 346.211975,467.543732 337.710846,457.242889 
	C330.637421,448.671967 323.405945,440.231659 316.276703,431.706573 
	C306.328064,419.810089 296.468201,407.838776 286.457031,395.995270 
	C279.897614,388.235352 273.103180,380.674591 266.475830,372.971436 
	C256.549988,361.434296 246.810730,349.733704 236.741684,338.323608 
	C228.774826,329.295746 220.392960,320.635284 212.273087,311.740753 
	C208.697891,307.824463 205.315521,303.732178 202.075989,299.986206 
	C213.394684,297.616669 224.535080,295.716797 235.444244,292.916199 
	C263.481964,285.718292 288.438324,272.523529 309.090179,252.131882 
	C316.206177,245.105530 322.212646,236.788986 327.850311,228.468536 
	C337.890594,213.650574 343.953522,197.071732 346.904297,179.437531 
	C347.490509,175.934387 348.759033,174.897888 352.218842,174.928574 
	C369.716888,175.083832 387.225800,175.336136 404.713348,174.880920 
	C416.224396,174.581284 420.631836,172.394165 420.951630,158.837799 
	C421.195221,148.510559 421.006134,138.172958 420.998260,127.839966 
	C420.990662,117.880890 416.029816,113.002846 405.913818,113.000969 
	C387.581085,112.997566 369.248169,112.960396 350.915802,113.039291 
	C347.887543,113.052322 346.792389,112.423225 345.729034,108.968521 
	C342.345764,97.976837 338.246429,87.164871 333.725159,76.581909 
	C331.578644,71.557457 327.848145,67.209702 324.475739,62.000011 
	C326.456085,62.000011 327.597321,62.000011 328.738586,62.000011 
	C354.404419,62.000008 380.070251,61.979958 405.736053,62.009781 
	C416.133362,62.021862 420.259583,55.991901 420.064545,47.894508 
	C419.803741,37.067810 419.725006,26.220457 420.104614,15.400797 
	C420.327057,9.059990 418.006989,4.499094 413.000000,1.000000 
z"/>
<path fill="#000000" opacity="1.000000" stroke="none" 
	d="
M412.531342,1.000000 
	C418.006989,4.499094 420.327057,9.059990 420.104614,15.400797 
	C419.725006,26.220457 419.803741,37.067810 420.064545,47.894508 
	C420.259583,55.991901 416.133362,62.021862 405.736053,62.009781 
	C380.070251,61.979958 354.404419,62.000008 328.738586,62.000011 
	C327.597321,62.000011 326.456085,62.000011 324.475739,62.000011 
	C327.848145,67.209702 331.578644,71.557457 333.725159,76.581909 
	C338.246429,87.164871 342.345764,97.976837 345.729034,108.968521 
	C346.792389,112.423225 347.887543,113.052322 350.915802,113.039291 
	C369.248169,112.960396 387.581085,112.997566 405.913818,113.000969 
	C416.029816,113.002846 420.990662,117.880890 420.998260,127.839966 
	C421.006134,138.172958 421.195221,148.510559 420.951630,158.837799 
	C420.631836,172.394165 416.224396,174.581284 404.713348,174.880920 
	C387.225800,175.336136 369.716888,175.083832 352.218842,174.928574 
	C348.759033,174.897888 347.490509,175.934387 346.904297,179.437531 
	C343.953522,197.071732 337.890594,213.650574 327.850311,228.468536 
	C322.212646,236.788986 316.206177,245.105530 309.090179,252.131882 
	C288.438324,272.523529 263.481964,285.718292 235.444244,292.916199 
	C224.535080,295.716797 213.394684,297.616669 202.075989,299.986206 
	C205.315521,303.732178 208.697891,307.824463 212.273087,311.740753 
	C220.392960,320.635284 228.774826,329.295746 236.741684,338.323608 
	C246.810730,349.733704 256.549988,361.434296 266.475830,372.971436 
	C273.103180,380.674591 279.897614,388.235352 286.457031,395.995270 
	C296.468201,407.838776 306.328064,419.810089 316.276703,431.706573 
	C323.405945,440.231659 330.637421,448.671967 337.710846,457.242889 
	C346.211975,467.543732 354.582306,477.952423 363.041046,488.288391 
	C364.193695,489.696838 365.527618,490.957275 366.782104,492.282013 
	C373.832947,499.727783 370.338989,508.860077 363.087708,512.657349 
	C335.979095,513.000000 308.958221,513.000000 281.397766,512.667664 
	C271.548340,501.370605 262.234528,490.409210 252.929581,479.440338 
	C239.919357,464.103546 226.957657,448.725372 213.897141,433.431549 
	C201.562180,418.987366 189.200470,404.564667 176.714157,390.251526 
	C164.087265,375.777252 151.426971,361.327637 138.534225,347.090973 
	C125.793930,333.022675 112.556732,319.400909 99.962830,305.205902 
	C96.804573,301.646149 93.563835,296.735626 93.313782,292.280151 
	C92.483940,277.494049 92.897224,262.631378 93.046150,247.800186 
	C93.114540,240.989258 98.236137,235.132065 103.893150,235.018738 
	C122.977074,234.636429 142.094986,234.896484 161.136063,233.801117 
	C173.735580,233.076309 186.514282,231.566208 198.697510,228.415405 
	C217.145935,223.644257 234.089386,215.450974 246.540375,200.026810 
	C252.564957,192.563629 257.041199,184.408310 259.696075,175.000000 
	C250.723419,175.000000 242.059235,175.000000 233.395050,175.000000 
	C192.063538,175.000000 150.730682,175.184662 109.401398,174.881378 
	C97.813766,174.796356 93.268089,172.361710 93.033562,158.455750 
	C92.862152,148.292419 92.800964,138.118881 93.056717,127.959091 
	C93.305847,118.062088 97.195229,113.020233 107.970512,113.013191 
	C154.968414,112.982491 201.966339,113.000000 248.964264,113.000000 
	C250.639191,113.000000 252.314133,113.000000 254.437363,113.000000 
	C244.814285,95.791656 230.276779,86.827980 213.088913,80.865883 
	C197.176437,75.346199 180.693542,73.871674 164.195312,73.181808 
	C145.395676,72.395706 126.537910,73.000336 107.705406,72.999870 
	C97.911537,72.999634 93.012146,68.144012 93.003052,58.390713 
	C92.990776,45.224640 93.134468,32.056622 92.945747,18.893244 
	C92.844803,11.852771 93.533333,5.347086 100.000000,1.000000 
	C204.020889,1.000000 308.041779,1.000000 412.531342,1.000000 
z"/>
<path fill="#FFFFFF" opacity="1.000000" stroke="none" 
	d="
M99.531342,1.000000 
	C93.533333,5.347086 92.844803,11.852771 92.945747,18.893244 
	C93.134468,32.056622 92.990776,45.224640 93.003052,58.390713 
	C93.012146,68.144012 97.911537,72.999634 107.705406,72.999870 
	C126.537910,73.000336 145.395676,72.395706 164.195312,73.181808 
	C180.693542,73.871674 197.176437,75.346199 213.088913,80.865883 
	C230.276779,86.827980 244.814285,95.791656 254.437363,113.000000 
	C252.314133,113.000000 250.639191,113.000000 248.964264,113.000000 
	C201.966339,113.000000 154.968414,112.982491 107.970512,113.013191 
	C97.195229,113.020233 93.305847,118.062088 93.056717,127.959091 
	C92.800964,138.118881 92.862152,148.292419 93.033562,158.455750 
	C93.268089,172.361710 97.813766,174.796356 109.401398,174.881378 
	C150.730682,175.184662 192.063538,175.000000 233.395050,175.000000 
	C242.059235,175.000000 250.723419,175.000000 259.696075,175.000000 
	C257.041199,184.408310 252.564957,192.563629 246.540375,200.026810 
	C234.089386,215.450974 217.145935,223.644257 198.697510,228.415405 
	C186.514282,231.566208 173.735580,233.076309 161.136063,233.801117 
	C142.094986,234.896484 122.977074,234.636429 103.893150,235.018738 
	C98.236137,235.132065 93.114540,240.989258 93.046150,247.800186 
	C92.897224,262.631378 92.483940,277.494049 93.313782,292.280151 
	C93.563835,296.735626 96.804573,301.646149 99.962830,305.205902 
	C112.556732,319.400909 125.793930,333.022675 138.534225,347.090973 
	C151.426971,361.327637 164.087265,375.777252 176.714157,390.251526 
	C189.200470,404.564667 201.562180,418.987366 213.897141,433.431549 
	C226.957657,448.725372 239.919357,464.103546 252.929581,479.440338 
	C262.234528,490.409210 271.548340,501.370605 280.929077,512.667664 
	C187.712494,513.000000 94.425003,513.000000 1.068752,513.000000 
	C1.068752,342.333344 1.068752,171.666672 1.068752,1.000000 
	C33.761440,1.000000 66.412064,1.000000 99.531342,1.000000 
z"/>
</svg>